<svg width="864" height="432" xmlns="http://www.w3.org/2000/svg" data-name="Layer 1">
 <g>
  <title>Layer 1</title>
  <g stroke="null" id="svg_1">
   <g stroke="null" id="type">
    <path stroke="null" id="type_CompoundPathItem_" data-name="type &lt;CompoundPathItem&gt;" d="m293.55421,131.16041l82.23612,0l0,24.10117l-54.19096,0l0,15.4831l49.07916,0l0,22.34894l-49.07916,0l0,16.21352l54.92146,0l0,24.10117l-82.96646,0l-0.00016,-102.24789z" fill=" #f59720"/>
    <path stroke="null" id="type_CompoundPathItem_2" data-name="type &lt;CompoundPathItem&gt;" d="m417.27513,155.992l-30.67438,0l0,-24.83159l89.68582,0l0,24.83159l-30.67438,0l0,77.4163l-28.33705,0l0,-77.4163z" fill=" #f59720"/>
    <path stroke="null" id="type_CompoundPathItem_3" data-name="type &lt;CompoundPathItem&gt;" d="m486.51254,131.16041l28.33672,0l0,38.26999l36.37119,0l0,-38.26999l28.33714,0l0,102.24789l-28.33714,0l0,-38.85442l-36.37119,0l0,38.85442l-28.33672,0l0,-102.24789z" fill=" #f59720"/>
    <path stroke="null" id="type_CompoundPathItem_4" data-name="type &lt;CompoundPathItem&gt;" d="m588.32239,182.57633l0,-0.29197c0,-29.36002 23.66322,-53.16922 55.21401,-53.16922s54.92146,23.51723 54.92146,52.87725l0,0.29197c0,29.35945 -23.66264,53.16865 -55.21335,53.16865s-54.92212,-23.51665 -54.92212,-52.87668zm81.21365,0l0,-0.29197c0,-14.75333 -10.6627,-27.60729 -26.29178,-27.60729c-15.4831,0 -25.85448,12.56207 -25.85448,27.31532l0,0.29197c0,14.75267 10.66327,27.60663 26.14645,27.60663c15.62982,0 25.99997,-12.56141 25.99997,-27.31466l-0.00016,0z" fill=" #f59720"/>
    <path stroke="null" id="type_CompoundPathItem_5" data-name="type &lt;CompoundPathItem&gt;" d="m698.75205,218.2171l15.77531,-18.84282c10.07941,8.03356 21.32654,12.26969 33.15762,12.26969c7.59618,0 11.68542,-2.62914 11.68542,-7.01125l0,-0.29189c0,-4.23605 -3.35898,-6.57321 -17.23591,-9.78687c-21.76384,-4.96647 -38.56245,-11.10115 -38.56245,-32.1349l0,-0.29189c0,-18.98872 15.0458,-32.71917 39.58484,-32.71917c17.38247,0 30.96635,4.67417 42.06799,13.58438l-14.16873,20.01045c-9.34833,-6.57321 -19.57316,-10.07875 -28.62927,-10.07875c-6.86461,0 -10.22482,2.92135 -10.22482,6.57321l0,0.29197c0,4.67417 3.50563,6.7192 17.67444,9.9326c23.51674,5.11286 38.12351,12.70847 38.12351,31.84375l0,0.29189c0,20.88752 -16.50557,33.30344 -41.33766,33.30344c-18.11231,0.00008 -35.34822,-5.69672 -47.91029,-16.94385z" fill=" #f59720"/>
   </g>
   <g stroke="null" id="logoMark">
    <path stroke="null" id="logoMark_CompoundPathItem_" data-name="logoMark &lt;CompoundPathItem&gt;" d="m143.45092,296.24482l0,0.69948l0.53827,-0.69948l-0.53827,0z" fill=" #f59720"/>
    <rect stroke="null" id="logoMark_PathItem_" data-name="logoMark &lt;PathItem&gt;" x="202.74972" y="131.16041" width="39.30966" height="53.31019" fill=" #f59720"/>
    <polygon stroke="null" id="logoMark_PathItem_2" data-name="logoMark &lt;PathItem&gt;" points="242.062255859375,296.2231750488281 177.10121154785156,296.2231750488281 230.43362426757812,227.3491668701172 242.05978393554688,212.33670043945312 242.062255859375,296.2231750488281 " fill=" #f59720"/>
    <rect stroke="null" id="logoMark_PathItem_3" data-name="logoMark &lt;PathItem&gt;" y="237.99919" width="39.3118" height="58.22284" fill=" #f59720" x="76.99998"/>
    <polygon stroke="null" id="logoMark_PathItem_4" data-name="logoMark &lt;PathItem&gt;" points="207.7705078125,213.8911895751953 143.98951721191406,296.24456787109375 143.45132446289062,296.24456787109375 143.45132446289062,214.2195281982422 111.29092407226562,214.2195281982422 171.3909912109375,136.61190795898438 175.6109161376953,131.1600799560547 175.6109161376953,213.8911895751953 207.7705078125,213.8911895751953 " fill=" #f59720"/>
    <polygon stroke="null" id="logoMark_PathItem_5" data-name="logoMark &lt;PathItem&gt;" points="138.15997314453125,131.16172790527344 88.62532043457031,195.12786865234375 77.00080871582031,210.13787841796875 77.00080871582031,131.16172790527344 138.15997314453125,131.16172790527344 " fill=" #f59720"/>
   </g>
  </g>
 </g>

</svg>