<?xml version="1.0" encoding="UTF-8" standalone="no" ?>
<!DOCTYPE svg PUBLIC "-//W3C//DTD SVG 1.1//EN" "http://www.w3.org/Graphics/SVG/1.1/DTD/svg11.dtd">
<svg xmlns="http://www.w3.org/2000/svg" xmlns:xlink="http://www.w3.org/1999/xlink" version="1.1" width="1000" height="500" viewBox="0 0 1000 500" xml:space="preserve">
<desc>Created with Fabric.js 5.2.4</desc>
<defs>
</defs>
<rect x="0" y="0" width="100%" height="100%" fill="transparent"></rect>
<g transform="matrix(1 0 0 1 500 250)" id="d2078365-ba31-49bd-a5a7-e40baadd7503"  >
<rect style="stroke: none; stroke-width: 1; stroke-dasharray: none; stroke-linecap: butt; stroke-dashoffset: 0; stroke-linejoin: miter; stroke-miterlimit: 4; fill: rgb(255,255,255); fill-rule: nonzero; opacity: 1; visibility: hidden;" vector-effect="non-scaling-stroke"  x="-500" y="-250" rx="0" ry="0" width="1000" height="500" />
</g>
<g transform="matrix(0 0 0 0 0 0)" id="84442a5c-8f82-4f4a-b5da-34b1c8ba6e8b"  >
</g>
<g transform="matrix(3.38 0 0 3.38 500 250)"  >
<g style="" vector-effect="non-scaling-stroke"   >
		<g transform="matrix(1 0 0 1 -140.58 15.83)"  >
<path style="stroke: none; stroke-width: 1; stroke-dasharray: none; stroke-linecap: butt; stroke-dashoffset: 0; stroke-linejoin: miter; stroke-miterlimit: 4; fill: rgb(39,170,224); fill-rule: nonzero; opacity: 1;" vector-effect="non-scaling-stroke"  transform=" translate(-159.68, -116.36)" d="M 156.43 99.9 C 156.98000000000002 97.99000000000001 158.36 96.98 160.09 97.24000000000001 C 161.84328952951404 97.45411099655745 163.10202443933682 99.03308941700654 162.92000000000002 100.79 C 162.92000000000002 111.13000000000001 162.92000000000002 121.48 162.92000000000002 131.79000000000002 C 162.92000000000002 133.79000000000002 161.81 134.89000000000001 160.07000000000002 135.53000000000003 L 158.87000000000003 135.53000000000003 C 157.76000000000002 134.83000000000004 156.63000000000002 134.15000000000003 156.42000000000004 132.68000000000004 Q 156.42000000000004 123.48000000000003 156.42000000000004 114.30000000000004 C 156.48 109.52 156.45 104.71 156.43 99.9 Z" stroke-linecap="round" />
</g>
		<g transform="matrix(1 0 0 1 128.36 5.79)"  >
<path style="stroke: none; stroke-width: 1; stroke-dasharray: none; stroke-linecap: butt; stroke-dashoffset: 0; stroke-linejoin: miter; stroke-miterlimit: 4; fill: rgb(53,62,72); fill-rule: nonzero; opacity: 1;" vector-effect="non-scaling-stroke"  transform=" translate(-428.62, -106.32)" d="M 444.24 90.35 C 443.9529205094325 90.55127383898271 443.6910462890134 90.78628916499983 443.46000000000004 91.05 Q 437.21000000000004 100.05 431.01000000000005 109.05 C 430.6586682129382 109.61111020907984 430.468398547004 110.25802707325607 430.46000000000004 110.92 C 430.46000000000004 114.86 430.46000000000004 118.79 430.46000000000004 122.8 L 426.59000000000003 122.8 L 426.59000000000003 121.6 C 426.59000000000003 118.1 426.59000000000003 114.6 426.59000000000003 111.08999999999999 C 426.5717783980895 110.31236238052325 426.33998902007454 109.55472247328042 425.92 108.89999999999999 C 421.92 102.97 417.79 97.08999999999999 413.72 91.19 C 413.49 90.86 413.28000000000003 90.53 412.94000000000005 90.03 C 414.43000000000006 90.03 415.78000000000003 89.97 417.11000000000007 90.03 C 417.44000000000005 90.03 417.82000000000005 90.47 418.05000000000007 90.8 Q 422.9000000000001 97.91 427.7100000000001 105.03999999999999 L 428.61000000000007 106.33 L 433.51000000000005 99.17 C 435.4200000000001 96.38 437.35 93.59 439.2300000000001 90.77 C 439.54831711240814 90.22069012578223 440.1581640360286 89.90794811366918 440.7900000000001 89.97 C 441.9600000000001 89.97 443.12000000000006 89.89 444.2900000000001 89.85 Z" stroke-linecap="round" />
</g>
		<g transform="matrix(1 0 0 1 -143.94 15.77)"  >
<path style="stroke: none; stroke-width: 1; stroke-dasharray: none; stroke-linecap: butt; stroke-dashoffset: 0; stroke-linejoin: miter; stroke-miterlimit: 4; fill: rgb(172,222,243); fill-rule: nonzero; opacity: 1;" vector-effect="non-scaling-stroke"  transform=" translate(-156.34, -116.31)" d="M 156.43 99.9 C 156.43 104.71000000000001 156.43 109.52000000000001 156.43 114.33000000000001 Q 156.43 123.52000000000001 156.43 132.71 C 156.36754034605204 132.72487723465434 156.30245965394798 132.72487723465434 156.24 132.71 L 156.24 99.92 C 156.29818796278138 99.88844227832453 156.36651646695813 99.88124980420066 156.43 99.9 Z" stroke-linecap="round" />
</g>
		<g transform="matrix(1 0 0 1 27.88 5.9)"  >
<path style="stroke: none; stroke-width: 1; stroke-dasharray: none; stroke-linecap: butt; stroke-dashoffset: 0; stroke-linejoin: miter; stroke-miterlimit: 4; fill: rgb(54,63,74); fill-rule: nonzero; opacity: 1;" vector-effect="non-scaling-stroke"  transform=" translate(-328.15, -106.43)" d="M 338.44 116.17 L 338.44 90.1 L 342 90.1 L 342 122.85999999999999 C 341.1980006207776 122.92547090353614 340.3919993792224 122.92547090353614 339.59 122.85999999999999 C 339.1151620675892 122.71704129278847 338.7005243246691 122.42187544189616 338.40999999999997 122.01999999999998 Q 328.68 109.71 319 97.4 C 318.73 97.06 318.46 96.74000000000001 318 96.17 L 318 122.79 L 314.3 122.79 L 314.3 90 C 315.3526172692522 89.94507262374951 316.4073827307478 89.94507262374951 317.46000000000004 90 C 317.8 90 318.15000000000003 90.48 318.46000000000004 90.81 Q 328.00000000000006 102.81 337.53000000000003 114.94 Z" stroke-linecap="round" />
</g>
		<g transform="matrix(1 0 0 1 -34.16 5.93)"  >
<path style="stroke: none; stroke-width: 1; stroke-dasharray: none; stroke-linecap: butt; stroke-dashoffset: 0; stroke-linejoin: miter; stroke-miterlimit: 4; fill: rgb(51,60,71); fill-rule: nonzero; opacity: 1;" vector-effect="non-scaling-stroke"  transform=" translate(-266.11, -106.47)" d="M 269.65 109.52 L 279.71 122.85 C 278.14 122.85 276.78999999999996 122.91 275.45 122.85 C 275.09 122.85 274.68 122.36999999999999 274.45 122.02 Q 270.28999999999996 116.53 266.2 111.02 C 265.83311488265764 110.45253027543794 265.18336896800866 110.13342429368727 264.51 110.19 C 261.8 110.24 259.08 110.19 256.23 110.19 L 256.23 122.81 L 252.51000000000002 122.81 L 252.51000000000002 90.18 C 252.59000000000003 90.13000000000001 252.66000000000003 90.06 252.72000000000003 90.06 C 257.88000000000005 90.06 263.03000000000003 90.06 268.19000000000005 90.13 C 269.4250171171986 90.18735254485459 270.6448163865668 90.42659494299033 271.81000000000006 90.83999999999999 C 276.21000000000004 92.27999999999999 278.5400000000001 95.49 278.5300000000001 99.93999999999998 C 278.5200000000001 104.38999999999997 276.12000000000006 107.45999999999998 271.7900000000001 108.93999999999998 C 271.12 109.13 270.46 109.29 269.65 109.52 Z M 256.19 106.92 C 260.59 106.74 264.93 106.76 269.19 106.33 C 271.62620826878555 106.10191351775272 273.669940367499 104.39615268049963 274.33 102.03999999999999 C 275.65 97.96 273.33 94.3 268.71999999999997 93.75999999999999 C 265.7262795106782 93.52207032625982 262.72246331460514 93.43529341392883 259.71999999999997 93.5 C 258.53999999999996 93.49999999999999 257.34999999999997 93.49999999999999 256.11999999999995 93.49999999999999 Z" stroke-linecap="round" />
</g>
		<g transform="matrix(1 0 0 1 -126.5 -0.32)"  >
<path style="stroke: none; stroke-width: 1; stroke-dasharray: none; stroke-linecap: butt; stroke-dashoffset: 0; stroke-linejoin: miter; stroke-miterlimit: 4; fill: rgb(88,118,180); fill-rule: nonzero; opacity: 1;" vector-effect="non-scaling-stroke"  transform=" translate(-173.76, -100.22)" d="M 170.46 100.13 Q 170.46 89.66 170.46 79.19999999999999 C 170.3747046424968 78.08596393200713 170.78012831966248 76.99022426399176 171.57000000000002 76.19999999999999 C 172.40787746140475 75.42507619121395 173.59082685380812 75.14643515824577 174.6864893177414 75.46591804492537 C 175.78215178167468 75.78540093160498 176.62994230335664 76.65618294886723 176.92000000000002 77.75999999999999 C 177.0340300197247 78.26520239239262 177.0877384812711 78.78214633477664 177.08 79.3 L 177.08 121.15 C 177.08 123.57000000000001 175.95000000000002 125 173.99 125.09 C 171.87 125.19 170.47 123.72 170.47 121.33 C 170.47 115.50999999999999 170.47 109.7 170.47 103.88 Z" stroke-linecap="round" />
</g>
		<g transform="matrix(1 0 0 1 -112.39 -15.88)"  >
<path style="stroke: none; stroke-width: 1; stroke-dasharray: none; stroke-linecap: butt; stroke-dashoffset: 0; stroke-linejoin: miter; stroke-miterlimit: 4; fill: rgb(93,95,169); fill-rule: nonzero; opacity: 1;" vector-effect="non-scaling-stroke"  transform=" translate(-187.88, -84.65)" d="M 184.61 84.73 C 184.61 79.47 184.61 74.21000000000001 184.61 68.95 C 184.5499255368296 67.41210826774656 185.576803087349 66.04293820038735 187.07000000000002 65.67 C 188.42557096956838 65.28255447727163 189.8725368073613 65.85232289498613 190.60000000000002 67.06 C 190.93657621553774 67.67474087177168 191.12491240884444 68.35959975652324 191.15000000000003 69.06 Q 191.15000000000003 84.6 191.15000000000003 100.15 C 191.15000000000003 102.35000000000001 189.82000000000002 103.76 187.86000000000004 103.76 C 185.90000000000006 103.76 184.60000000000005 102.33 184.60000000000005 100.13000000000001 Q 184.61 92.45 184.61 84.73 Z" stroke-linecap="round" />
</g>
		<g transform="matrix(1 0 0 1 -74.38 5.9)"  >
<path style="stroke: none; stroke-width: 1; stroke-dasharray: none; stroke-linecap: butt; stroke-dashoffset: 0; stroke-linejoin: miter; stroke-miterlimit: 4; fill: rgb(52,61,72); fill-rule: nonzero; opacity: 1;" vector-effect="non-scaling-stroke"  transform=" translate(-225.89, -106.44)" d="M 224 93.53 L 213 93.53 L 213 90.09 L 238.78 90.09 L 238.78 93.48 L 227.89 93.48 L 227.89 122.8 L 224 122.8 Z" stroke-linecap="round" />
</g>
		<g transform="matrix(1 0 0 1 88.61 5.9)"  >
<path style="stroke: none; stroke-width: 1; stroke-dasharray: none; stroke-linecap: butt; stroke-dashoffset: 0; stroke-linejoin: miter; stroke-miterlimit: 4; fill: rgb(53,62,72); fill-rule: nonzero; opacity: 1;" vector-effect="non-scaling-stroke"  transform=" translate(-388.88, -106.44)" d="M 401.76 90.1 L 401.76 93.46 L 390.82 93.46 L 390.82 122.77 L 387 122.77 L 387 93.53 L 376 93.53 L 376 90.1 Z" stroke-linecap="round" />
</g>
		<g transform="matrix(1 0 0 1 60.87 5.91)"  >
<path style="stroke: none; stroke-width: 1; stroke-dasharray: none; stroke-linecap: butt; stroke-dashoffset: 0; stroke-linejoin: miter; stroke-miterlimit: 4; fill: rgb(56,64,75); fill-rule: nonzero; opacity: 1;" vector-effect="non-scaling-stroke"  transform=" translate(-361.13, -106.45)" d="M 362.94 122.8 L 359.33 122.8 L 359.33 90.1 L 362.94 90.1 Z" stroke-linecap="round" />
</g>
		<g transform="matrix(1 0 0 1 -5.05 5.92)"  >
<path style="stroke: none; stroke-width: 1; stroke-dasharray: none; stroke-linecap: butt; stroke-dashoffset: 0; stroke-linejoin: miter; stroke-miterlimit: 4; fill: rgb(54,63,74); fill-rule: nonzero; opacity: 1;" vector-effect="non-scaling-stroke"  transform=" translate(-295.22, -106.46)" d="M 297.05 122.81 L 293.39 122.81 L 293.39 90.11 L 297.05 90.11 Z" stroke-linecap="round" />
</g>
</g>
</g>
</svg>